<svg width="122" height="42" viewBox="0 0 122 42" fill="none" xmlns="http://www.w3.org/2000/svg">
<path d="M60.8288 0C63.0025 1.04474 65.1387 2.16432 67.2874 3.26051C67.6492 3.44607 67.8706 3.75014 67.8535 4.17583C67.8363 4.61399 67.5744 4.88531 67.2032 5.07399C65.4459 5.96591 63.6901 6.85628 61.9343 7.74976C61.5492 7.94468 61.1656 8.14271 60.7836 8.34542C60.6198 8.43274 60.4702 8.42962 60.3049 8.34542C58.1374 7.23831 55.9684 6.13744 53.8025 5.02721C53.4533 4.84789 53.2334 4.55474 53.2334 4.14464C53.2334 3.70492 53.4829 3.418 53.8556 3.22933C55.3852 2.44967 56.9149 1.67002 58.4493 0.898162C59.0512 0.595656 59.6297 0.246371 60.2596 0.00155934H60.8288V0Z" fill="#FFFBF7"/>
<path d="M59.3661 21.1866C59.3661 20.2385 59.3458 19.2889 59.3724 18.3408C59.3942 17.5799 59.0496 17.0918 58.3916 16.7597C56.4424 15.7805 54.5073 14.7731 52.5504 13.8126C51.9079 13.4976 51.6382 13.0595 51.6491 12.3453C51.6772 10.4897 51.6959 8.63414 51.646 6.78013C51.6148 5.61376 52.6985 5.18963 53.5343 5.6278C55.6331 6.72867 57.7569 7.78432 59.8745 8.84933C60.1161 8.97095 60.2066 9.12844 60.2019 9.39353C60.1894 10.1311 60.1972 10.8686 60.1972 11.6077C60.1972 11.7995 60.2284 11.9695 60.4576 12.0147C60.7274 12.0677 60.8896 11.9352 60.8927 11.628C60.9005 10.8795 60.9052 10.1311 60.8927 9.38261C60.888 9.11285 60.9925 8.96472 61.2295 8.84465C63.3377 7.78432 65.4412 6.71464 67.5463 5.64651C67.7926 5.52176 68.0452 5.41885 68.3306 5.44536C69.0089 5.50773 69.4252 5.94901 69.4268 6.63979C69.433 8.62167 69.4268 10.6036 69.4299 12.5854C69.4299 13.1483 69.1539 13.5007 68.6627 13.7456C66.7042 14.7279 64.7582 15.7368 62.7935 16.7082C62.0497 17.0762 61.6942 17.5986 61.7098 18.4531C61.7472 20.3492 61.7222 22.2485 61.7207 24.1461C61.7207 24.8307 61.4213 25.1114 60.7414 25.1394C59.5938 25.1862 59.3131 24.879 59.3583 23.7828C59.3942 22.9205 59.3661 22.0536 59.3661 21.1897V21.1866Z" fill="#FFFBF7"/>
<path d="M85.3692 13.309C85.3692 14.1104 85.3614 14.9119 85.3723 15.7118C85.3785 16.1984 85.1743 16.5196 84.7392 16.7426C83.1362 17.5643 81.5457 18.4095 79.9443 19.2359C79.4204 19.5056 79.1694 19.9079 79.1756 20.502C79.1881 21.7355 79.1803 22.9689 79.1787 24.2023C79.1787 24.8011 78.8669 25.1192 78.2712 25.1316C78.1137 25.1348 77.9547 25.1332 77.7972 25.1316C77.136 25.1254 76.8257 24.8198 76.8242 24.1649C76.8226 22.9533 76.8101 21.7401 76.8288 20.5286C76.8382 19.9079 76.5903 19.501 76.0352 19.2187C74.4587 18.4157 72.8994 17.5768 71.3214 16.7753C70.8349 16.5289 70.6306 16.1687 70.6321 15.6417C70.6384 14.0917 70.6275 12.5433 70.6368 10.9934C70.6431 10.0141 71.3448 9.59156 72.2258 10.0344C73.9582 10.9045 75.6827 11.7886 77.4136 12.6603C77.6288 12.7679 77.727 12.9051 77.7208 13.1515C77.7067 13.6894 77.7161 14.2258 77.7161 14.7638C77.7161 14.848 77.7161 14.9322 77.7208 15.0164C77.7332 15.2066 77.8346 15.3049 78.0264 15.3017C78.2182 15.2986 78.2806 15.1739 78.2806 15.007C78.2837 14.4161 78.2946 13.8266 78.2806 13.2357C78.2728 12.9488 78.3616 12.7803 78.633 12.6447C80.3092 11.8058 81.9761 10.9466 83.6477 10.0952C83.788 10.0235 83.9315 9.95176 84.0812 9.9081C84.7517 9.70851 85.3536 10.142 85.3629 10.8406C85.3738 11.6623 85.3661 12.4856 85.3661 13.3074L85.3692 13.309Z" fill="#FFFBF7"/>
<path d="M50.4516 13.3367C50.4516 14.0961 50.4422 14.8555 50.4547 15.6133C50.4641 16.1684 50.2426 16.5348 49.7343 16.7921C48.1547 17.5905 46.597 18.431 45.0221 19.2371C44.4904 19.5084 44.2533 19.9092 44.2611 20.5017C44.2767 21.7242 44.2674 22.9467 44.2643 24.1692C44.2643 24.8085 43.9524 25.1235 43.3193 25.1313C43.1088 25.1344 42.8967 25.1422 42.6878 25.1251C42.2231 25.0876 41.9144 24.7586 41.9128 24.2924C41.9081 23.0387 41.8988 21.7835 41.9159 20.5298C41.9237 19.9092 41.6618 19.4991 41.1144 19.2184C39.5115 18.3966 37.921 17.5515 36.3196 16.7251C35.9064 16.513 35.7177 16.198 35.7192 15.738C35.7239 14.146 35.7489 12.5539 35.7114 10.9634C35.6881 9.98886 36.5878 9.64581 37.2489 9.99509C37.9194 10.3491 38.5977 10.689 39.2729 11.0336C40.3426 11.5794 41.4092 12.1313 42.4866 12.6631C42.733 12.7847 42.8188 12.9422 42.811 13.2057C42.7954 13.7749 42.8047 14.344 42.8063 14.9132C42.8063 15.0972 42.8047 15.2936 43.0636 15.2999C43.3224 15.3061 43.3739 15.1315 43.3739 14.9194C43.3739 14.3284 43.3832 13.739 43.3708 13.148C43.3661 12.9032 43.4612 12.7644 43.678 12.6568C45.4103 11.7867 47.1365 10.9057 48.8658 10.031C48.9687 9.9795 49.0763 9.93272 49.187 9.90154C49.792 9.73157 50.3689 10.0902 50.4251 10.7124C50.4719 11.2254 50.4485 11.7446 50.4532 12.2608C50.4563 12.6194 50.4532 12.9781 50.4532 13.3351L50.4516 13.3367Z" fill="#FFFBF7"/>
<path d="M49.1402 8.78671C49.1308 9.06895 49.0076 9.28257 48.794 9.44162C48.702 9.51023 48.5991 9.56637 48.4962 9.61783C46.7965 10.4817 45.0938 11.3424 43.3972 12.211C43.1789 12.3232 43.0012 12.3295 42.7798 12.2156C41.0552 11.3299 39.3259 10.4536 37.5951 9.57884C37.2707 9.41512 37.0524 9.18746 37.0353 8.80543C37.0166 8.41248 37.2411 8.17546 37.5592 8.01174C38.3357 7.61099 39.1185 7.21961 39.8982 6.82354C40.7433 6.39317 41.59 5.96748 42.4305 5.52932C42.8796 5.29542 43.2975 5.30634 43.7512 5.54335C45.3495 6.37446 46.9603 7.18374 48.5679 7.99459C48.9047 8.16455 49.1246 8.40312 49.1402 8.78515V8.78671Z" fill="#FFFBF7"/>
<path d="M77.9952 5.33911C78.201 5.35003 78.3835 5.39681 78.555 5.48257C80.2094 6.32148 81.8623 7.16038 83.5152 8.00241C83.8707 8.18329 84.103 8.45149 84.0484 8.88342C84.011 9.17657 83.8535 9.39331 83.5916 9.52586C81.7984 10.4381 80.0036 11.3487 78.2104 12.2624C78.0638 12.3373 77.9391 12.3342 77.7941 12.2609C76.0289 11.3612 74.2622 10.4677 72.4955 9.56952C72.1743 9.40579 71.9482 9.16721 71.9529 8.78362C71.9576 8.40315 72.179 8.16926 72.5049 8.00553C74.1593 7.16818 75.8106 6.32459 77.4635 5.48413C77.635 5.39681 77.8174 5.35159 77.9968 5.34223L77.9952 5.33911Z" fill="#FFFBF7"/>
<path d="M16.1982 40.3174L10.7157 30.2911C10.5239 29.9402 10.1559 29.7219 9.75673 29.7219H6.73635C6.34184 29.7219 5.97696 29.934 5.78361 30.2786L0.142031 40.305C-0.268067 41.0331 0.258979 41.9344 1.09477 41.9344H3.06262C3.44777 41.9344 3.80485 41.7317 4.00288 41.3996L4.37867 40.7665C4.5767 40.4344 4.93223 40.2332 5.31894 40.2332H11.3457C11.7137 40.2332 12.0567 40.4172 12.2594 40.7244L12.7319 41.4417C12.9346 41.7489 13.2776 41.9344 13.6456 41.9344H15.2408C16.0704 41.9344 16.599 41.0441 16.1998 40.3159L16.1982 40.3174ZM8.3705 37.5403C7.67505 37.5403 7.11058 37.0382 7.11058 36.4176C7.11058 35.797 7.67505 35.2949 8.3705 35.2949C9.06595 35.2949 9.63042 35.7986 9.63042 36.4176C9.63042 37.0366 9.06595 37.5403 8.3705 37.5403Z" fill="#FFFBF7"/>
<path d="M41.6805 31.3392L40.0869 30.0123C39.8857 29.8439 39.6315 29.7534 39.368 29.7534H27.9882C27.3676 29.7534 26.8655 30.2555 26.8655 30.8761V40.8432C26.8655 41.4638 27.3676 41.9659 27.9882 41.9659H30.073C30.6936 41.9659 31.1957 41.4638 31.1957 40.8432V38.4356C31.1957 37.815 31.6993 37.3129 32.3184 37.3129H34.9333C35.3809 37.3129 35.7863 37.578 35.964 37.9881L37.397 41.2892C37.5748 41.6993 37.9802 41.9644 38.4262 41.9644H40.3597C41.1721 41.9644 41.7148 41.1301 41.3873 40.3879L40.3972 38.1441C40.1991 37.6965 40.3145 37.1711 40.6825 36.8483L41.7039 35.9501C41.9456 35.7365 42.0843 35.4293 42.0843 35.1065V32.1984C42.0843 31.8647 41.9362 31.5482 41.6789 31.3361L41.6805 31.3392ZM38.1284 33.5332C38.1284 34.1663 37.6138 34.6808 36.9807 34.6808H32.4572C31.8241 34.6808 31.3095 34.1678 31.3095 33.5332V33.4848C31.3095 32.8518 31.8225 32.3372 32.4572 32.3372H36.9807C37.6138 32.3372 38.1284 32.8502 38.1284 33.4848V33.5332Z" fill="#FFFBF7"/>
<path d="M68.2619 31.8974L66.0945 30.02C65.884 29.8376 65.6158 29.7378 65.3382 29.7378H54.0644C53.4267 29.7378 52.909 30.2555 52.909 30.8932V40.8448C52.909 41.4825 53.4267 42.0002 54.0644 42.0002H64.897C65.1776 42.0002 65.449 41.8988 65.6595 41.7133L68.2682 39.4211C68.5177 39.2012 68.6611 38.8863 68.6611 38.5541V32.7706C68.6611 32.4354 68.5161 32.1173 68.2619 31.8974ZM64.3481 38.406C64.3481 39.0344 63.8382 39.5443 63.2098 39.5443H58.4445C57.8161 39.5443 57.3062 39.0344 57.3062 38.406V33.3819C57.3062 32.7535 57.8161 32.2436 58.4445 32.2436H63.2098C63.8382 32.2436 64.3481 32.7535 64.3481 33.3819V38.406Z" fill="#FFFBF7"/>
<path d="M80.1299 30.9162V40.8522C80.1299 41.4852 80.6429 41.9998 81.2775 41.9998H92.9739C93.607 41.9998 94.1216 41.4868 94.1216 40.8522V40.7711C94.1216 40.138 93.6085 39.6234 92.9739 39.6234H85.575C84.9419 39.6234 84.4273 39.1104 84.4273 38.4758V38.2013C84.4273 37.5683 84.9404 37.0537 85.575 37.0537H92.9739C93.607 37.0537 94.1216 36.5407 94.1216 35.906V35.6316C94.1216 34.9985 93.6085 34.4839 92.9739 34.4839H85.575C84.9419 34.4839 84.4273 33.9709 84.4273 33.3363C84.4273 32.7032 84.9404 32.1886 85.575 32.1886H92.9739C93.607 32.1886 94.1216 31.6756 94.1216 31.041V30.9116C94.1216 30.2785 93.6085 29.7639 92.9739 29.7639H81.2775C80.6445 29.7639 80.1299 30.2769 80.1299 30.9116V30.9162Z" fill="#FFFBF7"/>
<path d="M107.075 41.9516H108.809C109.521 41.9516 110.098 41.3747 110.098 40.6621V37.5138C110.098 36.3194 111.581 35.7674 112.362 36.6702L116.546 41.5057C116.791 41.7894 117.146 41.9516 117.521 41.9516H119.81C120.522 41.9516 121.099 41.3747 121.099 40.6621V31.0754C121.099 30.3628 120.522 29.7859 119.81 29.7859H118.043C117.33 29.7859 116.753 30.3628 116.753 31.0754V34.0662C116.753 35.2606 115.271 35.8126 114.489 34.9098L110.435 30.2303C110.19 29.9481 109.835 29.7859 109.461 29.7859H107.073C106.361 29.7859 105.784 30.3628 105.784 31.0754V40.6621C105.784 41.3747 106.361 41.9516 107.073 41.9516H107.075Z" fill="#FFFBF7"/>
</svg>
