<svg width="180" height="35" viewBox="0 0 180 35" fill="none" xmlns="http://www.w3.org/2000/svg">
<path d="M74.3846 8.05762H79.9521C83.3479 8.06811 84.2117 9.92862 82.5471 13.6392L79.1863 21.1546C78.1406 23.4873 76.4514 25.0225 74.1153 25.764L74.4615 34.5734H70.2719L70.4677 26.4389L69.9501 26.5054L66.3375 34.5734H62.5116L74.3846 8.05762ZM76.5249 11.8276L71.5449 22.9487H72.4227C72.9542 22.9487 73.3319 22.9137 73.5558 22.8403C74.3776 22.5605 74.9791 21.9975 75.3603 21.1511L78.7211 13.6357C79.2667 12.4291 78.9834 11.8241 77.8748 11.8241H76.5249V11.8276Z" fill="#FFFBF7"/>
<path d="M93.182 14.1393L81.337 34.5734H77.4866L93.3009 8.05762H98.5432L90.6046 34.5734H86.7402L93.182 14.1393Z" fill="#FFFBF7"/>
<path d="M102.317 34.5734H97.0745L102.051 17.4371L104.999 8.05762H108.864L102.411 28.4918L114.256 8.05762H118.121L112.665 17.4616L102.317 34.5699V34.5734Z" fill="#FFFBF7"/>
<path d="M122.496 8.05757H132.414L130.728 11.8276H124.632L119.652 22.9487H124.895L123.195 26.7326H117.953L116.131 30.7999H122.226L120.544 34.5699H110.626L122.496 8.05408V8.05757Z" fill="#FFFBF7"/>
<path d="M137.327 8.05762H142.895C146.291 8.06811 147.154 9.92862 145.49 13.6392L142.129 21.1546C141.083 23.4873 139.394 25.0225 137.058 25.764L137.404 34.5734H133.215L133.41 26.4389L132.893 26.5054L129.28 34.5734H125.454L137.324 8.05762H137.327ZM139.468 11.8276L134.487 22.9487H135.365C135.897 22.9487 136.275 22.9137 136.498 22.8403C137.32 22.5605 137.922 21.9975 138.303 21.1511L141.664 13.6357C142.209 12.4291 141.926 11.8241 140.817 11.8241H139.468V11.8276Z" fill="#FFFBF7"/>
<path d="M148.693 26.7606L147.501 29.422C146.966 30.6215 147.259 31.2195 148.375 31.2195C149.491 31.2195 150.305 30.6215 150.837 29.422L151.061 28.9359C151.631 27.6559 151.106 26.1626 149.48 24.449C147.854 22.7458 147.588 20.6755 148.686 18.2309L150.935 13.2019C152.6 9.49141 155.261 7.6344 158.919 7.6344C162.577 7.6344 163.584 9.49141 161.92 13.2019L160.325 16.7691H156.499L158.094 13.2019C158.625 12.0129 158.338 11.4149 157.233 11.4044H157.205C156.107 11.4044 155.289 12.0024 154.754 13.2019L152.537 18.147C152.005 19.329 152.554 20.7734 154.18 22.487C155.806 24.1902 156.09 26.229 155.023 28.6071L154.656 29.4185C152.988 33.1395 150.326 35 146.668 35C143.003 34.9895 142.003 33.1325 143.671 29.4185L144.864 26.7571H148.69L148.693 26.7606Z" fill="#FFFBF7"/>
<path d="M169.547 8.05757H179.465L177.779 11.8276H171.684L166.704 22.9487H171.946L170.246 26.7326H165.004L163.182 30.7999H169.278L167.596 34.5699H157.677L169.547 8.05408V8.05757Z" fill="#FFFBF7"/>
<path d="M69.7928 0.17486C69.7928 0.17486 65.8864 0.479117 63.0747 3.43425C61.0253 5.58853 60.0531 8.79547 60.0531 8.79547L50.5897 32.8317C49.9952 34.2726 50.4148 35.4791 51.6878 33.6396L68.4464 8.51219C68.8486 8.01209 69.3732 7.6239 69.9747 7.39309L85.2505 1.68215L86.5864 1.14009C87.5446 0.727418 87.1739 0 86.2507 0C82.4107 0 69.7928 0.17486 69.7928 0.17486Z" fill="#FFFBF7"/>
<path d="M63.9524 0.17486C63.9524 0.17486 44.7388 0 40.8989 0C39.9791 0 39.6014 0.727418 40.5596 1.13309L41.8991 1.67866L58.2555 7.48052C58.6122 6.4978 59.5495 4.2561 61.1092 2.60891C62.1793 1.48281 63.4139 0.741407 64.526 0.255296C64.1658 0.192346 63.9524 0.17486 63.9524 0.17486Z" fill="#FFFBF7"/>
<path d="M7.22213 21C8.62006 21 9.74768 21.5097 10.605 22.5292C11.47 23.5487 11.8948 24.8849 11.8948 26.5531C11.8948 28.847 11.2692 30.7624 10.0103 32.2839C8.75136 33.8054 7.25302 34.57 5.51526 34.57C4.14049 34.57 3.00515 34.0525 2.12469 33.0099C1.24422 31.9672 0.796265 30.6311 0.796265 28.9937C0.796265 26.9547 1.39869 25.1088 2.60354 23.4715C3.80839 21.8187 5.34534 21 7.22213 21ZM5.55387 32.979C6.77417 32.979 7.84 32.3225 8.75136 31.0018C9.66272 29.6811 10.1107 28.0978 10.1107 26.2365C10.1107 25.1011 9.84808 24.2052 9.32289 23.5642C8.7977 22.9154 8.09487 22.591 7.19896 22.591C5.83192 22.591 4.72747 23.2707 3.87017 24.63C3.01288 25.9893 2.58809 27.5263 2.58809 29.2331C2.58809 30.3916 2.85841 31.303 3.39132 31.9672C3.92424 32.6392 4.65024 32.9713 5.55387 32.9713V32.979Z" fill="#FFFBF7"/>
<path d="M25.6888 21.1699L23.8197 34.4001H22.8698L16.2894 24.7381L14.9301 34.4001H13.285L15.1541 21.1699H16.0577L22.6612 30.9014L24.0283 21.1699H25.6888Z" fill="#FFFBF7"/>
<path d="M34.7097 21.1699L34.4934 22.7455H29.898L29.311 26.893H33.5435L33.304 28.4685H29.0871L28.2452 34.4078H26.4766L28.3997 21.1699H34.7097Z" fill="#FFFBF7"/>
<path d="M44.7733 21.1699L44.5338 22.815H40.8112L39.1815 34.4001H37.3511L38.9807 22.815H35.2581L35.4975 21.1699H44.7656H44.7733Z" fill="#FFFBF7"/>
</svg>
