<svg width="46" height="46" viewBox="0 0 46 46" fill="none" xmlns="http://www.w3.org/2000/svg">
<path d="M22.73 45.46C35.2835 45.46 45.46 35.2835 45.46 22.73C45.46 10.1766 35.2835 0 22.73 0C10.1766 0 0 10.1766 0 22.73C0 35.2835 10.1766 45.46 22.73 45.46Z" fill="#FFFBF7"/>
<path d="M18.8642 28.3488L19.0225 29.9559L14.5939 36.8478L14.1721 36.7323L16.9855 28.09L18.8642 28.3488Z" fill="#FFFBF7"/>
<path d="M24.8202 16.5221C24.8202 16.5221 22.5025 16.5822 20.7533 18.4193C19.4777 19.7596 18.8734 21.7526 18.8734 21.7526L13.7689 37.6369C13.5956 38.1684 13.8775 38.5647 14.8192 37.2048L25.2431 21.5758C25.4927 21.2639 25.8196 21.0236 26.1928 20.8791L38.537 16.0704L40.1095 15.4315C40.3579 15.2639 40.2909 15.3286 40.4238 15.138C40.9472 14.3858 40.3683 14.6088 39.9905 14.8722C39.8241 14.9889 39.3608 15.0005 39.1586 15.0259C36.8536 15.3252 24.8191 16.5233 24.8191 16.5233L24.8202 16.5221ZM15.4824 33.8022L16.9936 29.1852C17.1588 28.6826 17.7666 28.4654 18.1975 28.7739C18.2102 28.7832 18.2218 28.7912 18.2333 28.8005C18.5534 29.0535 18.6135 29.5157 18.387 29.8554L15.7516 33.8068C15.6164 34.0541 15.4038 34.0113 15.4812 33.801L15.4824 33.8022Z" fill="url(#paint0_linear_1_9)"/>
<path d="M21.8474 16.6749C21.3124 16.951 20.7544 17.3369 20.2437 17.8719C19.257 18.9071 18.7001 20.2508 18.4505 20.8274C18.432 20.8701 18.3824 20.8886 18.3408 20.8678L7.83826 15.7806L7.57021 15.6501C7.45005 15.575 7.65109 15.3381 7.86715 15.107C8.44022 14.4947 8.6609 14.4693 8.59389 15.0227C8.55807 15.3242 8.60082 15.3866 8.80995 15.4086L9.54593 15.4375H9.55171C12.8688 15.7229 18.8746 16.2416 21.8173 16.5201C21.8982 16.527 21.919 16.6356 21.8474 16.6726V16.6749Z" fill="url(#paint1_linear_1_9)"/>
<defs>
<linearGradient id="paint0_linear_1_9" x1="13.1115" y1="14.9987" x2="49.6652" y2="14.7511" gradientUnits="userSpaceOnUse">
<stop offset="0.0799206" stop-color="#2535D9"/>
<stop offset="0.758094" stop-color="#FF0E64"/>
</linearGradient>
<linearGradient id="paint1_linear_1_9" x1="7.20917" y1="14.7263" x2="26.7069" y2="14.4612" gradientUnits="userSpaceOnUse">
<stop offset="0.0799206" stop-color="#2535D9"/>
<stop offset="0.758094" stop-color="#FF0E64"/>
</linearGradient>
</defs>
</svg>
