<svg width="480" height="356" viewBox="0 0 480 356" fill="none" xmlns="http://www.w3.org/2000/svg">
<g filter="url(#filter0_d_222_1324)">
<path d="M12 322V48.4585C12 47.1201 12.4475 45.8201 13.2713 44.7653L35.498 16.3068C36.6351 14.8509 38.3794 14 40.2267 14H136.309C138.004 14 139.62 14.717 140.758 15.9737L166.504 44.4194C167.642 45.6761 169.258 46.3931 170.953 46.3931H443.898C447.211 46.3931 449.898 49.0794 449.898 52.3931V322C449.898 325.314 447.211 328 443.898 328H18C14.6863 328 12 325.314 12 322Z" fill="#141414" fill-opacity="0.27" shape-rendering="crispEdges"/>
<path d="M12 322V48.4585C12 47.1201 12.4475 45.8201 13.2713 44.7653L35.498 16.3068C36.6351 14.8509 38.3794 14 40.2267 14H136.309C138.004 14 139.62 14.717 140.758 15.9737L166.504 44.4194C167.642 45.6761 169.258 46.3931 170.953 46.3931H443.898C447.211 46.3931 449.898 49.0794 449.898 52.3931V322C449.898 325.314 447.211 328 443.898 328H18C14.6863 328 12 325.314 12 322Z" stroke="url(#paint0_linear_222_1324)" stroke-width="5" shape-rendering="crispEdges"/>
</g>
<defs>
<filter id="filter0_d_222_1324" x="0.5" y="0.5" width="478.898" height="355" filterUnits="userSpaceOnUse" color-interpolation-filters="sRGB">
<feFlood flood-opacity="0" result="BackgroundImageFix"/>
<feColorMatrix in="SourceAlpha" type="matrix" values="0 0 0 0 0 0 0 0 0 0 0 0 0 0 0 0 0 0 127 0" result="hardAlpha"/>
<feOffset dx="9" dy="7"/>
<feGaussianBlur stdDeviation="9"/>
<feComposite in2="hardAlpha" operator="out"/>
<feColorMatrix type="matrix" values="0 0 0 0 0 0 0 0 0 0 0 0 0 0 0 0 0 0 0.3 0"/>
<feBlend mode="normal" in2="BackgroundImageFix" result="effect1_dropShadow_222_1324"/>
<feBlend mode="normal" in="SourceGraphic" in2="effect1_dropShadow_222_1324" result="shape"/>
</filter>
<linearGradient id="paint0_linear_222_1324" x1="2.08726" y1="19.0044" x2="596.853" y2="14.0956" gradientUnits="userSpaceOnUse">
<stop offset="0.0799206" stop-color="#2535D9"/>
<stop offset="0.758094" stop-color="#FF0E64"/>
</linearGradient>
</defs>
</svg>
