<svg width="257" height="203" viewBox="0 0 257 203" fill="none" xmlns="http://www.w3.org/2000/svg">
<mask id="path-1-inside-1_260_949" fill="white">
<path fill-rule="evenodd" clip-rule="evenodd" d="M257 21C257 9.40202 247.598 0 236 0H21C9.40202 0 0 9.40202 0 21V23C0 34.598 9.40202 44 21 44H56C67.598 44 77 53.402 77 65V182C77 193.598 86.402 203 98 203H236C247.598 203 257 193.598 257 182V44V21Z"/>
</mask>
<path fill-rule="evenodd" clip-rule="evenodd" d="M257 21C257 9.40202 247.598 0 236 0H21C9.40202 0 0 9.40202 0 21V23C0 34.598 9.40202 44 21 44H56C67.598 44 77 53.402 77 65V182C77 193.598 86.402 203 98 203H236C247.598 203 257 193.598 257 182V44V21Z" fill="#1E1E1E"/>
<path d="M21 1H236V-1H21V1ZM1 23V21H-1V23H1ZM56 43H21V45H56V43ZM78 182V65H76V182H78ZM236 202H98V204H236V202ZM256 44V182H258V44H256ZM256 21V44H258V21H256ZM236 204C248.15 204 258 194.15 258 182H256C256 193.046 247.046 202 236 202V204ZM76 182C76 194.15 85.8497 204 98 204V202C86.9543 202 78 193.046 78 182H76ZM56 45C67.0457 45 76 53.9543 76 65H78C78 52.8497 68.1503 43 56 43V45ZM-1 23C-1 35.1503 8.84973 45 21 45V43C9.9543 43 1 34.0457 1 23H-1ZM236 1C247.046 1 256 9.95431 256 21H258C258 8.84974 248.15 -1 236 -1V1ZM21 -1C8.84974 -1 -1 8.84974 -1 21H1C1 9.95431 9.9543 1 21 1V-1Z" fill="#FFFBF7" mask="url(#path-1-inside-1_260_949)"/>
</svg>
