<svg xmlns="http://www.w3.org/2000/svg" xmlns:xlink="http://www.w3.org/1999/xlink" width="25.961" height="25.961" viewBox="0 0 25.961 25.961">
  <defs>
    <clipPath id="clip-path">
      <rect id="background" width="24.961" height="24.961" rx="12.481" transform="translate(1149.871 26.548)" fill="none" stroke="#fff" stroke-width="1"/>
    </clipPath>
  </defs>
  <g id="Twitter_Top" data-name="Twitter Top" transform="translate(-1149.371 -26.048)">
    <g id="Component_6_1" data-name="Component 6 – 1" transform="translate(1149.871 26.548)">
      <g id="Mask_Group_5" data-name="Mask Group 5" transform="translate(-1149.871 -26.548)" clip-path="url(#clip-path)">
        <rect id="background-2" data-name="background" width="50.961" height="24.961" rx="12.481" transform="translate(1137.871 51.509)" fill="#ffc400" stroke="#ffc400" stroke-width="1"/>
        <g id="twitter" transform="translate(975.871 -1668.452)">
          <rect id="background-3" data-name="background" width="24.961" height="24.961" rx="12.481" transform="translate(174 1695)" fill="none" stroke="#fff" stroke-width="1"/>
          <path id="Path_1" data-name="Path 1" d="M12.263,1.327A11.946,11.946,0,0,0,9.314.412a.045.045,0,0,0-.047.022,8.321,8.321,0,0,0-.367.754,11.028,11.028,0,0,0-3.312,0A7.632,7.632,0,0,0,5.215.435.047.047,0,0,0,5.168.412a11.912,11.912,0,0,0-2.949.915.042.042,0,0,0-.019.017A12.226,12.226,0,0,0,.06,9.589a.05.05,0,0,0,.019.034A12.012,12.012,0,0,0,3.7,11.451a.047.047,0,0,0,.051-.017,8.586,8.586,0,0,0,.74-1.2.046.046,0,0,0-.025-.064,7.911,7.911,0,0,1-1.13-.539.046.046,0,0,1,0-.077c.076-.057.152-.116.224-.176A.045.045,0,0,1,3.6,9.369a8.567,8.567,0,0,0,7.28,0,.045.045,0,0,1,.047.006c.073.06.148.12.225.176a.046.046,0,0,1,0,.077,7.423,7.423,0,0,1-1.131.538.046.046,0,0,0-.025.064,9.64,9.64,0,0,0,.739,1.2.046.046,0,0,0,.051.017A11.973,11.973,0,0,0,14.4,9.623a.046.046,0,0,0,.019-.033,12.145,12.145,0,0,0-2.142-8.245A.037.037,0,0,0,12.263,1.327ZM4.841,7.943a1.392,1.392,0,0,1-1.3-1.46,1.385,1.385,0,0,1,1.3-1.46,1.377,1.377,0,0,1,1.3,1.46A1.385,1.385,0,0,1,4.841,7.943Zm4.813,0a1.392,1.392,0,0,1-1.3-1.46,1.385,1.385,0,0,1,1.3-1.46,1.377,1.377,0,0,1,1.3,1.46A1.381,1.381,0,0,1,9.654,7.943Z" transform="translate(179 1701.036)" fill="#fff"/>
        </g>
      </g>
    </g>
    <rect id="background-4" data-name="background" width="24.961" height="24.961" rx="12.481" transform="translate(1149.871 26.548)" fill="none" stroke="#fff" stroke-width="1"/>
  </g>
</svg>
