<svg xmlns="http://www.w3.org/2000/svg" xmlns:xlink="http://www.w3.org/1999/xlink" width="25.961" height="25.961" viewBox="0 0 25.961 25.961">
  <defs>
    <clipPath id="clip-path">
      <rect id="background" width="24.961" height="24.961" rx="12.481" transform="translate(1149.871 26.548)" fill="none" stroke="#fff" stroke-width="1"/>
    </clipPath>
  </defs>
  <g id="Twitter_Top" data-name="Twitter Top" transform="translate(-1149.371 -26.048)">
    <g id="Component_6_1" data-name="Component 6 – 1" transform="translate(1149.871 26.548)">
      <g id="Mask_Group_5" data-name="Mask Group 5" transform="translate(-1149.871 -26.548)" clip-path="url(#clip-path)">
        <rect id="background-2" data-name="background" width="50.961" height="24.961" rx="12.481" transform="translate(1137.871 51.509)" fill="#ffc400" stroke="#ffc400" stroke-width="1"/>
        <g id="twitter" transform="translate(975.871 -1668.452)">
          <rect id="background-3" data-name="background" width="24.961" height="24.961" rx="12.481" transform="translate(174 1695)" fill="none" stroke="#fff" stroke-width="1"/>
          <path id="twitter_icon" data-name="twitter icon" d="M8.955,0V0h.628l.23.046a2.456,2.456,0,0,1,.417.117,2.966,2.966,0,0,1,.363.169,3.448,3.448,0,0,1,.318.2,1.956,1.956,0,0,1,.254.21A.352.352,0,0,0,11.511.8a4.639,4.639,0,0,0,.508-.151q.272-.1.538-.218T12.88.275l.06-.036,0,0,.012-.006.012-.006L12.98.217l.012-.006,0,0,0,0,0,0,0,0,.012,0,.012,0,0,.018,0,.018-.006.018-.006.018-.006.012L13,.29l-.006.018a.421.421,0,0,0-.012.048A2.028,2.028,0,0,1,12.866.6a3.023,3.023,0,0,1-.272.429,2.109,2.109,0,0,1-.294.328q-.13.112-.173.157a.519.519,0,0,1-.1.085l-.06.04-.012.006-.012.006,0,0,0,0,0,0,0,0-.012.006-.012.006,0,0,0,0,0,0,0,0,0,0,0,0,0,0,0,0h.061l.338-.073a6.055,6.055,0,0,0,.646-.175l.326-.109.036-.012.018-.006.012-.006.012-.006.012-.006.012-.006.024,0,.024,0v.024l-.006,0-.006,0,0,0,0,0,0,0,0,0,0,0,0,0,0,0,0,0,0,0,0,0-.006.012-.006.012,0,0-.153.205a1.7,1.7,0,0,1-.163.205q-.012,0-.034.036a3.463,3.463,0,0,1-.256.269,6.082,6.082,0,0,1-.462.419.572.572,0,0,0-.23.454q0,.268-.028.607t-.091.731a8.717,8.717,0,0,1-.205.888,8.076,8.076,0,0,1-.338.967,7.533,7.533,0,0,1-.417.846q-.218.375-.4.635t-.369.489q-.187.23-.474.517l-.314.314q-.028.027-.237.2t-.447.346a5.171,5.171,0,0,1-.437.286q-.2.115-.481.262a5.722,5.722,0,0,1-.607.276q-.326.127-.689.236a6.292,6.292,0,0,1-.7.169q-.338.06-.767.1l-.429.042v.006H3.831v-.006l-.1-.006-.169-.012q-.066-.006-.5-.066t-.683-.121q-.248-.061-.737-.23A7.173,7.173,0,0,1,.8,10.105Q.453,9.934.365,9.888t-.2-.111L.061,9.71l0,0,0,0,0,0,0,0L.036,9.692.024,9.686l0,0,0,0,0,0,0,0,0,0,0,0H0V9.644l.012,0,.012,0,.054.006q.054.006.3.018t.514,0a5.4,5.4,0,0,0,.556-.054,6.263,6.263,0,0,0,.671-.145,4.956,4.956,0,0,0,.711-.244q.323-.143.46-.213A4.471,4.471,0,0,0,3.7,8.762l.276-.187,0,0,0,0,0,0,0,0,0,0,0,0,0,0,0,0,.012,0,.012,0,0-.012,0-.012,0,0,0,0-.1-.006L3.752,8.5a1.817,1.817,0,0,1-.284-.054A2.726,2.726,0,0,1,3.051,8.3a3.214,3.214,0,0,1-.435-.23,2.141,2.141,0,0,1-.306-.221q-.093-.087-.242-.246a2.445,2.445,0,0,1-.256-.33,2.964,2.964,0,0,1-.208-.39l-.1-.219L1.5,6.641l-.006-.018,0-.012,0-.012.018,0,.018,0,.133.018a2.954,2.954,0,0,0,.417.012,3.228,3.228,0,0,0,.393-.024q.109-.018.133-.024l.024-.006.03-.006.03-.006,0,0,0,0,0,0,0,0L2.671,6.55l-.024-.006-.024-.006L2.6,6.532l-.024-.006L2.49,6.5q-.061-.018-.326-.133a2.5,2.5,0,0,1-.422-.224,2.921,2.921,0,0,1-.3-.238,3.42,3.42,0,0,1-.311-.335,2.417,2.417,0,0,1-.3-.477,2.9,2.9,0,0,1-.2-.52,2.805,2.805,0,0,1-.087-.5L.52,3.819l.012,0,.012,0,.012.006.012.006.012.006.012.006.187.085a2.363,2.363,0,0,0,.465.145q.278.06.332.066l.054.006h.109l0,0,0,0,0,0,0,0,0,0,0,0,0,0,0,0-.012-.006-.012-.006,0,0,0,0,0,0,0,0L1.67,4.1l-.012-.006,0,0-.1-.077a1.585,1.585,0,0,1-.209-.2q-.109-.121-.218-.254a1.96,1.96,0,0,1-.194-.284,3.443,3.443,0,0,1-.179-.384A2.728,2.728,0,0,1,.61,2.423a2.662,2.662,0,0,1-.054-.465,2.93,2.93,0,0,1,.012-.393A2.567,2.567,0,0,1,.64,1.2,2.872,2.872,0,0,1,.8.762L.9.532.907.514.913.5l0,0,0,0,0,0,0,0,0,0,0,0,0,0,0,0,0,0,0,0,0,0,0,0L.955.52.961.532l0,0,0,0L1.13.719q.163.181.387.4a2.272,2.272,0,0,0,.247.232.177.177,0,0,1,.06.056,2.467,2.467,0,0,0,.242.214q.205.169.538.393t.737.441a7.193,7.193,0,0,0,.87.393q.465.175.653.23t.64.139q.453.085.683.109t.314.028l.085,0,0-.018,0-.018-.024-.151a2.84,2.84,0,0,1-.024-.422,2.773,2.773,0,0,1,.042-.5A2.971,2.971,0,0,1,6.7,1.783,2.485,2.485,0,0,1,6.867,1.4a3.721,3.721,0,0,1,.215-.322A2.606,2.606,0,0,1,7.426.707,2.542,2.542,0,0,1,7.91.363a3.142,3.142,0,0,1,.5-.23A2.337,2.337,0,0,1,8.8.03,1.344,1.344,0,0,0,8.955,0Z" transform="translate(179.779 1702.036)" fill="#fff"/>
        </g>
      </g>
    </g>
    <rect id="background-4" data-name="background" width="24.961" height="24.961" rx="12.481" transform="translate(1149.871 26.548)" fill="none" stroke="#fff" stroke-width="1"/>
  </g>
</svg>
