<svg width="29" height="25" viewBox="0 0 29 25" fill="none" xmlns="http://www.w3.org/2000/svg">
<path d="M13.6206 0.576925L0.829327 23.5129C0.457593 24.1795 0.939482 25 1.70269 25H9.16617C10.2455 25 11.2417 24.4202 11.7748 23.4816L19.4479 9.97206C19.791 9.368 19.796 8.62917 19.4613 8.02047L15.3701 0.582074C14.9915 -0.106382 14.0033 -0.109291 13.6206 0.576925Z" fill="#FFFBF7"/>
<path d="M27.7476 25H18.0103C17.2276 25 16.7483 24.1415 17.159 23.4752L22.1306 15.4103C22.5256 14.7696 23.4599 14.7784 23.8428 15.4263L28.6085 23.4913C29.0024 24.1579 28.5219 25 27.7476 25Z" fill="#FFFBF7"/>
</svg>
