<svg width="25" height="30" viewBox="0 0 25 30" fill="none" xmlns="http://www.w3.org/2000/svg">
<path d="M20.1812 10.8282V14.0344L15.3716 16.8957V22.5496L12.5623 24.1875V24.1868L9.75222 22.5496V16.8957L4.94339 14.0344V10.8282L7.77031 9.12134L12.5623 11.9659L17.3543 9.1221L20.1812 10.8282Z" fill="#FFFBF7"/>
<path d="M9.75836 7.97216L12.5393 9.61009L15.3831 7.97216L12.5623 6.31201L9.75836 7.97216Z" fill="#FFFBF7"/>
<path d="M4.94339 16.3899V19.7224L7.75882 21.3772V18.0906L4.94339 16.3899Z" fill="#FFFBF7"/>
<path d="M20.1812 16.3899V19.7224L17.3658 21.3772V18.0906L20.1812 16.3899Z" fill="#FFFBF7"/>
<path d="M9.75223 28.1613V24.8877L12.5623 26.5249L15.3455 24.8877V28.1613L12.5493 29.8237L9.75223 28.1613Z" fill="#FFFBF7"/>
<path d="M2.95538 6.36938L5.7823 8.01957L2.95232 9.62073L2.96228 12.8498L0.135358 11.1997L0.110077 7.94679L2.95538 6.36938Z" fill="#FFFBF7"/>
<path d="M22.1547 6.36938L19.3278 8.01957L22.1577 9.62073L22.1478 12.8498L24.9747 11.1997L25 7.94679L22.1547 6.36938Z" fill="#FFFBF7"/>
<path d="M7.75882 23.7102V26.9738L0.182831 22.5434V13.6206L2.94616 15.2922V20.8771L7.75882 23.7102Z" fill="#FFFBF7"/>
<path d="M17.3658 23.7102V26.9738L24.941 22.5434V13.6206L22.1777 15.2922V20.8771L17.3658 23.7102Z" fill="#FFFBF7"/>
<path d="M17.3428 6.80608L20.1812 5.19496L12.5884 0.793701L4.82852 5.19879L7.64701 6.77696L12.5033 4.01976L17.3428 6.80608Z" fill="#FFFBF7"/>
</svg>
