<svg width="17" height="28" viewBox="0 0 17 28" fill="none" xmlns="http://www.w3.org/2000/svg">
<path d="M8.30958 0.258636C8.58168 0.718076 8.85242 1.17888 9.12727 1.63696C11.5913 5.72679 14.0567 9.81526 16.5221 13.9037C16.5467 13.9448 16.5699 13.9885 16.6 14.0418C16.1624 14.3003 15.7317 14.556 15.2996 14.8117C13.0093 16.1654 10.7189 17.5177 8.4299 18.8728C8.35333 18.9179 8.29453 18.9535 8.19471 18.8947C5.48867 17.2894 2.77852 15.6895 0.0697357 14.0883C0.0464902 14.0747 0.0246129 14.0582 0 14.0405C0.920247 12.5145 1.83639 10.9926 2.75391 9.47205C4.57252 6.45561 6.39114 3.43916 8.20839 0.421355C8.23847 0.370762 8.25351 0.311964 8.27676 0.258636C8.2877 0.258636 8.29864 0.258636 8.30958 0.258636Z" fill="#FFFBF7"/>
<path d="M8.30134 27.3054C5.55428 23.4357 2.82362 19.5879 0.0929565 15.7415C0.101161 15.7305 0.109366 15.721 0.11757 15.71C0.166796 15.7374 0.21739 15.7647 0.265248 15.7934C2.87968 17.3372 5.49411 18.881 8.10718 20.4275C8.23161 20.5013 8.31776 20.5054 8.44629 20.4302C11.0963 18.8605 13.749 17.2962 16.4017 15.7305C16.4482 15.7032 16.4961 15.6772 16.5658 15.6704C13.8133 19.5455 11.0621 23.4193 8.30134 27.3054Z" fill="#FFFBF7"/>
</svg>
